<svg width="90" height="63" viewBox="0 0 90 63" fill="none" xmlns="http://www.w3.org/2000/svg">
<path d="M60.564 61H39.06V58.648H41.748C44.212 58.648 45.444 57.864 45.444 56.296C45.444 56.072 45.164 55.12 44.604 53.44L38.892 38.488H17.724L12.18 52.768C12.18 52.88 11.984 53.58 11.592 54.868C11.2 56.1 11.004 56.968 11.004 57.472C11.004 57.92 11.312 58.228 11.928 58.396C12.544 58.564 13.86 58.648 15.876 58.648H17.22V61H0.756V58.648H1.932C3.78 58.648 5.124 58.34 5.964 57.724C6.804 57.052 7.532 55.96 8.148 54.448L26.628 6.232C26.908 6.176 27.412 5.784 28.14 5.056C28.868 4.272 29.54 3.488 30.156 2.704C30.772 1.864 31.08 1.388 31.08 1.276C31.08 1.164 31.052 1.08 30.996 1.024L32.172 0.687995L52.836 54.784C53.452 56.072 54.068 57.052 54.684 57.724C55.356 58.34 56.308 58.648 57.54 58.648H60.564V61ZM37.38 34.96L28.308 10.936L19.068 34.96H37.38ZM88.8254 55.792L89.4974 57.808C85.2974 60.72 80.7054 62.176 75.7214 62.176C73.9294 62.176 72.3894 61.532 71.1014 60.244C69.8134 58.956 69.1694 57.248 69.1694 55.12V25.384H64.2974V21.856H66.1454C67.9934 21.856 69.7014 20.736 71.2694 18.496C72.8934 16.256 73.7054 14.184 73.7054 12.28H75.8894V21.856H87.3134V25.384H79.0814C76.9534 25.384 75.8894 26.392 75.8894 28.408V52.432C75.8894 56.128 77.2334 57.976 79.9214 57.976C82.9454 57.976 85.9134 57.248 88.8254 55.792Z" fill="white"/>
</svg>
